<svg width="50" height="50" viewBox="0 0 80 80" fill="none" xmlns="http://www.w3.org/2000/svg">
<rect width="80" height="80" fill="#D294E8"/>
<path d="M39.2013 54.8068L29.0418 45.5402C28.83 45.347 28.711 45.085 28.711 44.8118C28.711 44.5386 28.83 44.2765 29.0418 44.0833C29.2536 43.8901 29.5409 43.7816 29.8404 43.7816C30.14 43.7816 30.4273 43.8901 30.6391 44.0833L38.8712 51.5931L39.0419 25.9208C39.0419 25.6477 39.1608 25.3858 39.3725 25.1927C39.5842 24.9997 39.8713 24.8912 40.1707 24.8912C40.4701 24.8912 40.7572 24.9997 40.9689 25.1927C41.1806 25.3858 41.2996 25.6477 41.2996 25.9208L41.1288 51.5931L49.3609 44.0833C49.5727 43.8901 49.86 43.7816 50.1596 43.7816C50.4591 43.7816 50.7464 43.8901 50.9582 44.0833C51.17 44.2765 51.289 44.5386 51.289 44.8118C51.289 45.085 51.17 45.347 50.9582 45.5402L40.7987 54.8068C40.6938 54.9025 40.5693 54.9785 40.4323 55.0303C40.2952 55.0821 40.1483 55.1088 40 55.1088C39.8517 55.1088 39.7048 55.0821 39.5677 55.0303C39.4307 54.9785 39.3062 54.9025 39.2013 54.8068Z" fill="#3C0C4D"/>
</svg>
