<svg width="20" height="20" viewBox="0 0 20 20" fill="none" xmlns="http://www.w3.org/2000/svg">
<path d="M10.2295 5.69141C9.33946 5.69141 8.46943 5.95533 7.72941 6.44979C6.98939 6.94426 6.41261 7.64706 6.07202 8.46933C5.73142 9.2916 5.64231 10.1964 5.81594 11.0693C5.98958 11.9422 6.41816 12.7441 7.0475 13.3734C7.67683 14.0027 8.47866 14.4313 9.35157 14.6049C10.2245 14.7786 11.1293 14.6895 11.9516 14.3489C12.7738 14.0083 13.4766 13.4315 13.9711 12.6915C14.4656 11.9515 14.7295 11.0814 14.7295 10.1914C14.7282 8.99831 14.2537 7.85444 13.4101 7.0108C12.5664 6.16715 11.4226 5.69265 10.2295 5.69141ZM10.2295 13.1914C9.63613 13.1914 9.05611 13.0155 8.56277 12.6858C8.06942 12.3562 7.6849 11.8876 7.45784 11.3395C7.23078 10.7913 7.17137 10.1881 7.28712 9.60614C7.40288 9.02419 7.6886 8.48964 8.10816 8.07009C8.52771 7.65053 9.06226 7.36481 9.64421 7.24905C10.2261 7.13329 10.8293 7.1927 11.3775 7.41977C11.9257 7.64683 12.3942 8.03135 12.7239 8.5247C13.0535 9.01804 13.2295 9.59806 13.2295 10.1914C13.2295 10.9871 12.9134 11.7501 12.3508 12.3127C11.7882 12.8753 11.0251 13.1914 10.2295 13.1914ZM14.7295 0.441406H5.72948C4.33755 0.442895 3.00305 0.996497 2.01881 1.98074C1.03457 2.96498 0.480966 4.29948 0.479477 5.69141V14.6914C0.480966 16.0833 1.03457 17.4178 2.01881 18.4021C3.00305 19.3863 4.33755 19.9399 5.72948 19.9414H14.7295C16.1214 19.9399 17.4559 19.3863 18.4401 18.4021C19.4244 17.4178 19.978 16.0833 19.9795 14.6914V5.69141C19.978 4.29948 19.4244 2.96498 18.4401 1.98074C17.4559 0.996497 16.1214 0.442895 14.7295 0.441406ZM18.4795 14.6914C18.4795 15.686 18.0844 16.6398 17.3811 17.3431C16.6779 18.0463 15.724 18.4414 14.7295 18.4414H5.72948C4.73492 18.4414 3.78109 18.0463 3.07783 17.3431C2.37457 16.6398 1.97948 15.686 1.97948 14.6914V5.69141C1.97948 4.69684 2.37457 3.74302 3.07783 3.03976C3.78109 2.33649 4.73492 1.94141 5.72948 1.94141H14.7295C15.724 1.94141 16.6779 2.33649 17.3811 3.03976C18.0844 3.74302 18.4795 4.69684 18.4795 5.69141V14.6914ZM16.2295 5.31641C16.2295 5.53891 16.1635 5.75642 16.0399 5.94142C15.9163 6.12643 15.7406 6.27062 15.535 6.35577C15.3294 6.44092 15.1032 6.4632 14.885 6.41979C14.6668 6.37638 14.4663 6.26924 14.309 6.1119C14.1516 5.95457 14.0445 5.75411 14.0011 5.53588C13.9577 5.31765 13.98 5.09145 14.0651 4.88589C14.1503 4.68032 14.2945 4.50462 14.4795 4.381C14.6645 4.25739 14.882 4.19141 15.1045 4.19141C15.4028 4.19141 15.689 4.30993 15.9 4.52091C16.1109 4.73189 16.2295 5.01804 16.2295 5.31641Z" fill="white"/>
</svg>
