<svg width="24" height="25" viewBox="0 0 24 25" fill="none" xmlns="http://www.w3.org/2000/svg">
<path d="M21 12.3543C21 12.5532 20.921 12.744 20.7803 12.8847C20.6397 13.0253 20.4489 13.1043 20.25 13.1043H12.75V20.6043C12.75 20.8032 12.671 20.994 12.5303 21.1347C12.3897 21.2753 12.1989 21.3543 12 21.3543C11.8011 21.3543 11.6103 21.2753 11.4697 21.1347C11.329 20.994 11.25 20.8032 11.25 20.6043V13.1043H3.75C3.55109 13.1043 3.36032 13.0253 3.21967 12.8847C3.07902 12.744 3 12.5532 3 12.3543C3 12.1554 3.07902 11.9647 3.21967 11.824C3.36032 11.6834 3.55109 11.6043 3.75 11.6043H11.25V4.10434C11.25 3.90542 11.329 3.71466 11.4697 3.57401C11.6103 3.43335 11.8011 3.35434 12 3.35434C12.1989 3.35434 12.3897 3.43335 12.5303 3.57401C12.671 3.71466 12.75 3.90542 12.75 4.10434V11.6043H20.25C20.4489 11.6043 20.6397 11.6834 20.7803 11.824C20.921 11.9647 21 12.1554 21 12.3543Z" fill="white"/>
</svg>
