<svg width="24" height="25" viewBox="0 0 24 25" fill="none" xmlns="http://www.w3.org/2000/svg">
<path d="M20.7806 12.885L14.0306 19.635C13.8899 19.7757 13.699 19.8548 13.5 19.8548C13.301 19.8548 13.1101 19.7757 12.9694 19.635C12.8286 19.4942 12.7496 19.3034 12.7496 19.1043C12.7496 18.9053 12.8286 18.7144 12.9694 18.5737L18.4397 13.1043H3.75C3.55109 13.1043 3.36032 13.0253 3.21967 12.8847C3.07902 12.744 3 12.5532 3 12.3543C3 12.1554 3.07902 11.9647 3.21967 11.824C3.36032 11.6834 3.55109 11.6043 3.75 11.6043H18.4397L12.9694 6.13496C12.8286 5.99423 12.7496 5.80336 12.7496 5.60434C12.7496 5.40531 12.8286 5.21444 12.9694 5.07371C13.1101 4.93298 13.301 4.85392 13.5 4.85392C13.699 4.85392 13.8899 4.93298 14.0306 5.07371L20.7806 11.8237C20.8504 11.8934 20.9057 11.9761 20.9434 12.0671C20.9812 12.1582 21.0006 12.2558 21.0006 12.3543C21.0006 12.4529 20.9812 12.5505 20.9434 12.6415C20.9057 12.7326 20.8504 12.8153 20.7806 12.885Z" fill="black"/>
</svg>
