<svg width="20" height="21" viewBox="0 0 20 21" fill="none" xmlns="http://www.w3.org/2000/svg">
<path d="M19.2295 5.94141C18.0364 5.94017 16.8925 5.46566 16.0489 4.62202C15.2052 3.77837 14.7307 2.6345 14.7295 1.44141C14.7295 1.24249 14.6505 1.05173 14.5098 0.911076C14.3692 0.770424 14.1784 0.691406 13.9795 0.691406H10.2295C10.0306 0.691406 9.8398 0.770424 9.69915 0.911076C9.55849 1.05173 9.47948 1.24249 9.47948 1.44141V13.8164C9.47932 14.1519 9.38914 14.4813 9.21834 14.77C9.04755 15.0588 8.80239 15.2965 8.50844 15.4583C8.21449 15.62 7.88252 15.6999 7.54716 15.6897C7.2118 15.6794 6.88534 15.5794 6.60182 15.3999C6.31831 15.2205 6.08813 14.9683 5.9353 14.6696C5.78246 14.3709 5.71258 14.0367 5.73293 13.7018C5.75328 13.3669 5.86312 13.0436 6.05099 12.7656C6.23886 12.4877 6.49789 12.2652 6.80104 12.1214C6.92927 12.0605 7.03761 11.9645 7.11345 11.8446C7.18929 11.7246 7.22952 11.5855 7.22948 11.4436V7.44141C7.22952 7.33177 7.20554 7.22347 7.1592 7.12411C7.11287 7.02475 7.04531 6.93675 6.9613 6.86632C6.87728 6.79589 6.77885 6.74474 6.67292 6.71646C6.567 6.68818 6.45617 6.68347 6.34823 6.70266C3.00229 7.29891 0.479477 10.357 0.479477 13.8164C0.479477 15.7061 1.23014 17.5183 2.56634 18.8545C3.90254 20.1907 5.71481 20.9414 7.60448 20.9414C9.49414 20.9414 11.3064 20.1907 12.6426 18.8545C13.9788 17.5183 14.7295 15.7061 14.7295 13.8164V10.0936C16.1185 10.8183 17.6627 11.195 19.2295 11.1914C19.4284 11.1914 19.6192 11.1124 19.7598 10.9717C19.9005 10.8311 19.9795 10.6403 19.9795 10.4414V6.69141C19.9795 6.49249 19.9005 6.30173 19.7598 6.16108C19.6192 6.02042 19.4284 5.94141 19.2295 5.94141ZM18.4795 9.65766C17.0138 9.52778 15.6104 9.0047 14.4173 8.14359C14.3051 8.06297 14.1729 8.01487 14.0352 8.00461C13.8975 7.99436 13.7596 8.02233 13.6367 8.08545C13.5139 8.14857 13.4108 8.24439 13.339 8.36234C13.2671 8.48029 13.2292 8.61579 13.2295 8.75391V13.8164C13.2295 15.3082 12.6368 16.739 11.582 17.7939C10.5271 18.8488 9.09632 19.4414 7.60448 19.4414C6.11263 19.4414 4.68189 18.8488 3.627 17.7939C2.57211 16.739 1.97948 15.3082 1.97948 13.8164C1.97948 11.3883 3.53948 9.21047 5.72948 8.41641V11.0105C5.24465 11.3344 4.85202 11.7784 4.58985 12.2993C4.32769 12.8201 4.20493 13.4 4.23354 13.9823C4.26216 14.5647 4.44117 15.1298 4.75314 15.6224C5.0651 16.115 5.49937 16.5184 6.01362 16.7933C6.52787 17.0681 7.10456 17.205 7.68747 17.1907C8.27039 17.1764 8.83964 17.0112 9.33976 16.7114C9.83987 16.4116 10.2538 15.9874 10.5411 15.48C10.8285 14.9727 10.9795 14.3995 10.9795 13.8164V2.19141H13.2764C13.445 3.51242 14.0475 4.74007 14.9891 5.68175C15.9308 6.62343 17.1585 7.22586 18.4795 7.39453V9.65766Z" fill="white"/>
</svg>
