<svg width="25" height="25" viewBox="0 0 25 25" fill="none" xmlns="http://www.w3.org/2000/svg">
<path d="M20.3623 20.0392L14.4935 10.8161L20.2845 4.44578C20.4154 4.29815 20.4829 4.10484 20.4723 3.90777C20.4617 3.7107 20.3739 3.52575 20.2278 3.39302C20.0818 3.26029 19.8893 3.19048 19.6921 3.19871C19.4949 3.20695 19.309 3.29258 19.1745 3.43703L13.6582 9.50453L9.86229 3.53922C9.7946 3.43268 9.70112 3.34494 9.5905 3.28414C9.47988 3.22334 9.3557 3.19145 9.22948 3.19141H4.72948C4.595 3.19134 4.46298 3.22743 4.34725 3.2959C4.23151 3.36437 4.13631 3.46269 4.07161 3.58058C4.00692 3.69847 3.97511 3.83159 3.97951 3.96599C3.98392 4.10039 4.02438 4.23113 4.09666 4.34453L9.96541 13.5667L4.17448 19.9417C4.10685 20.0144 4.05432 20.0997 4.01992 20.1928C3.98552 20.2859 3.96994 20.3849 3.97408 20.4841C3.97823 20.5832 4.00201 20.6806 4.04405 20.7705C4.0861 20.8604 4.14557 20.941 4.21902 21.0078C4.29247 21.0745 4.37843 21.126 4.47194 21.1593C4.56544 21.1926 4.66461 21.207 4.76372 21.2017C4.86282 21.1963 4.95989 21.1714 5.04928 21.1283C5.13867 21.0851 5.21861 21.0247 5.28448 20.9505L10.8007 14.883L14.5967 20.8483C14.6649 20.954 14.7586 21.0408 14.8692 21.1007C14.9798 21.1607 15.1037 21.1919 15.2295 21.1914H19.7295C19.8638 21.1914 19.9957 21.1552 20.1113 21.0868C20.2269 21.0184 20.322 20.9202 20.3866 20.8025C20.4513 20.6847 20.4831 20.5518 20.4789 20.4175C20.4746 20.2832 20.4343 20.1526 20.3623 20.0392ZM15.641 19.6914L6.09541 4.69141H8.81416L18.3635 19.6914H15.641Z" fill="white"/>
</svg>
